# xmcd
#
# Track frame offsets: 
#        150
#        12671
#        24654
#        34777
#        44569
#        55213
#        66568
#        77434
#        88254
#        101679
#        112904
#        124140
#        137421
#        148798
#        160268
#        172259
#        182375
#        193221
#
# Disc length: 2771 seconds
#
# Revision: 0
# Processed by: cddbd v1.5.2PL0 Copyright (c) Steve Scherf et al.
# Submitted via: ExactAudioCopy v0.99pb4
#
DISCID=040ad112
DTITLE=Mary Wells - The Complete 20th Century Fox Recordings CD1
DYEAR=1965
DGENRE=Soul
TTITLE0=Never, Never Leave Me
TTITLE1=He's A Lover
TTITLE2=Stop Takin' Me For Granted
TTITLE3=Use Your Head
TTITLE4=We're Just Two Of A Kind
TTITLE5=My Mind's Made Up
TTITLE6=Why Don't You Let Yourself Go
TTITLE7=Everlovin' Boy
TTITLE8=Ain't It The Truth
TTITLE9=He's Good Enough For Me
TTITLE10=How Can I Forget Him
TTITLE11=Time After Time
TTITLE12=Jive Guy
TTITLE13=Me Without You
TTITLE14=I'm Learnin'
TTITLE15=I'm Sorry
TTITLE16=Say What You Gotta Say
TTITLE17=Memories Are Creepin' Up On Me
EXTD=
EXTT0=
EXTT1=
EXTT2=
EXTT3=
EXTT4=
EXTT5=
EXTT6=
EXTT7=
EXTT8=
EXTT9=
EXTT10=
EXTT11=
EXTT12=
EXTT13=
EXTT14=
EXTT15=
EXTT16=
EXTT17=
PLAYORDER=
